<?xml version="1.0" standalone="no"?>
<!DOCTYPE svg PUBLIC "-//W3C//DTD SVG 20010904//EN"
 "http://www.w3.org/TR/2001/REC-SVG-20010904/DTD/svg10.dtd">
<svg version="1.0" xmlns="http://www.w3.org/2000/svg"
 width="402.000000pt" height="365.000000pt" viewBox="0 0 402.000000 365.000000"
 preserveAspectRatio="xMidYMid meet">
<metadata>
Created by potrace 1.16, written by Peter Selinger 2001-2019
</metadata>
<g transform="translate(0.000000,365.000000) scale(0.100000,-0.100000)"
fill="#000000" stroke="none">
<path d="M17 2658 c-4 -541 -7 -1352 -7 -1804 l0 -821 1113 -6 c1305 -8 2866
-11 2871 -6 2 2 6 812 10 1800 l6 1797 -182 6 c-101 3 -998 8 -1994 11 l-1811
5 -6 -982z m3752 896 l174 -6 -6 -832 c-4 -457 -7 -1235 -7 -1728 l0 -898
-948 0 c-522 0 -1388 3 -1925 7 l-977 6 0 757 c0 416 3 1196 7 1733 l6 977
1751 -5 c963 -3 1829 -8 1925 -11z"/>
<path d="M1912 3150 c-42 -59 -42 -59 -42 -151 0 -87 -1 -91 -17 -76 -21 18
-158 40 -228 35 l-50 -3 -3 -70 c-2 -38 2 -99 8 -135 l11 -65 135 -136 134
-136 0 -126 c0 -70 -3 -127 -6 -127 -7 0 -246 139 -256 149 -5 4 -26 81 -48
171 -22 91 -44 174 -49 185 -5 12 -33 40 -63 63 -52 40 -58 42 -122 42 l-67 0
-21 -47 c-12 -27 -23 -78 -26 -116 l-4 -68 -43 26 c-40 23 -53 25 -147 24 -57
-1 -116 -4 -133 -8 -30 -6 -30 -7 -32 -76 -2 -61 2 -78 30 -135 27 -55 41 -70
87 -97 40 -24 49 -33 33 -33 -15 0 -39 -20 -73 -61 -48 -58 -50 -62 -50 -123
0 -73 6 -81 83 -107 81 -28 154 -24 317 20 l145 38 122 -71 c68 -39 119 -74
115 -77 -4 -4 -58 -37 -121 -73 l-113 -66 -139 41 c-126 37 -148 41 -227 37
-62 -2 -101 -10 -134 -25 l-48 -22 0 -70 c0 -67 1 -71 46 -125 25 -31 51 -56
59 -56 32 0 21 -19 -26 -44 -40 -22 -55 -38 -79 -86 -25 -49 -30 -72 -30 -130
0 -85 1 -86 148 -96 96 -6 102 -6 147 20 26 14 49 26 50 26 2 0 5 -28 7 -62 3
-39 14 -82 29 -113 l24 -50 66 -3 c64 -3 68 -2 118 38 29 23 56 51 61 63 8 19
56 187 89 314 11 39 17 44 114 99 56 32 117 66 135 77 l32 19 0 -127 0 -127
-139 -142 -140 -141 -11 -65 c-6 -36 -10 -94 -8 -130 l3 -65 121 0 c98 0 125
4 147 18 l27 17 0 -92 c0 -92 0 -94 38 -143 l38 -50 71 -3 72 -3 40 55 c41 55
41 55 41 147 0 87 1 91 18 76 20 -18 157 -40 227 -35 l50 3 3 70 c2 39 -2 99
-8 135 l-11 65 -140 141 -139 142 0 127 0 127 38 -22 c20 -12 80 -47 134 -78
l96 -57 47 -175 c26 -96 51 -182 56 -191 4 -9 33 -35 63 -58 52 -40 56 -42
118 -39 l63 3 24 50 c15 31 26 74 29 113 2 34 5 62 7 62 1 0 24 -12 50 -26 45
-25 51 -26 144 -20 53 4 110 10 126 15 29 7 30 10 32 72 2 55 -2 74 -30 129
-25 51 -42 72 -79 95 -49 31 -59 45 -33 45 8 0 37 28 65 63 50 62 51 62 48
127 l-3 65 -70 28 c-90 37 -157 33 -345 -17 l-136 -37 -117 68 c-64 37 -117
70 -117 73 0 3 53 36 118 73 l117 68 152 -40 c168 -45 231 -50 308 -23 93 33
95 35 95 105 0 60 -2 65 -50 125 -28 34 -57 62 -65 62 -27 0 -15 15 35 42 41
23 55 39 80 88 27 54 31 69 28 133 -4 86 -1 85 -163 86 -93 1 -115 -2 -143
-19 -18 -11 -34 -20 -36 -20 -2 0 -6 26 -8 58 -3 31 -17 83 -31 115 l-26 57
-62 0 c-58 0 -66 -3 -117 -42 -63 -49 -61 -45 -107 -208 -67 -240 -43 -204
-196 -292 -107 -62 -135 -74 -138 -61 -2 9 0 69 4 132 l7 116 138 140 139 140
11 65 c6 36 10 94 8 130 l-3 65 -50 3 c-70 5 -207 -17 -227 -35 -17 -15 -18
-11 -18 78 l0 94 -45 58 -45 57 -63 0 -63 0 -42 -60z m148 -63 l40 -54 0 -156
c0 -87 3 -157 7 -157 4 0 41 33 83 74 73 72 77 75 140 84 36 5 66 9 68 7 2 -2
-2 -32 -8 -66 l-11 -64 -137 -137 -136 -137 -7 -73 c-10 -97 -11 -386 -1 -391
7 -4 365 196 395 221 8 7 17 23 20 35 2 12 25 94 51 182 48 167 48 167 127
225 l27 20 26 -64 25 -64 -24 -84 c-30 -102 -31 -123 -7 -114 9 4 68 37 130
73 l114 66 64 -6 c36 -2 68 -8 72 -11 3 -4 -8 -35 -25 -69 -30 -62 -31 -62
-157 -132 -112 -62 -152 -95 -113 -95 6 0 49 -10 95 -22 80 -20 85 -23 127
-77 50 -63 51 -61 -39 -92 l-48 -17 -177 49 c-97 27 -182 49 -189 49 -17 0
-402 -220 -402 -230 0 -4 88 -58 196 -120 l197 -112 177 46 c97 26 185 47 196
48 10 0 45 -9 77 -21 l57 -23 -19 -26 c-57 -79 -74 -90 -165 -114 -49 -13 -91
-28 -93 -33 -1 -6 52 -41 120 -80 122 -70 122 -70 153 -135 l32 -65 -26 -7
c-14 -4 -46 -8 -72 -9 -42 -2 -61 5 -174 71 -69 40 -129 71 -131 68 -3 -3 6
-49 21 -103 l26 -97 -22 -59 c-13 -33 -26 -61 -29 -64 -8 -5 -101 67 -111 86
-4 8 -29 94 -55 192 l-48 177 -195 115 c-108 63 -199 112 -204 109 -4 -3 -8
-105 -8 -227 l0 -222 140 -140 139 -139 11 -69 c7 -37 10 -70 9 -72 -2 -1 -33
2 -69 7 -63 9 -67 12 -140 84 -42 41 -79 74 -83 74 -4 0 -7 -70 -7 -155 l0
-155 -36 -50 c-20 -27 -40 -50 -45 -50 -5 0 -24 21 -44 48 l-35 47 0 158 c0
86 -3 157 -7 157 -4 0 -40 -32 -79 -71 -73 -72 -105 -88 -182 -89 l-33 0 7 47
c4 26 10 58 13 70 3 12 68 85 144 161 l137 139 0 226 c0 125 -2 227 -5 227 -8
0 -379 -212 -392 -224 -7 -6 -33 -86 -58 -176 -25 -91 -48 -173 -51 -183 -7
-24 -105 -100 -115 -90 -4 4 -17 32 -29 62 l-21 53 26 95 c14 52 25 97 25 99
0 13 -39 -4 -148 -64 l-123 -68 -60 7 c-33 4 -63 10 -66 13 -4 3 6 33 22 66
28 58 32 62 134 120 133 74 149 86 136 99 -5 5 -21 11 -35 13 -14 2 -29 6 -35
9 -5 4 -34 12 -62 19 -45 10 -59 19 -93 62 -22 28 -40 54 -40 59 0 9 103 49
127 49 10 0 97 -23 194 -51 l177 -51 196 113 c108 61 196 117 196 123 -1 15
-373 226 -399 226 -11 0 -98 -20 -193 -44 l-173 -45 -53 18 c-29 10 -58 23
-63 28 -7 7 5 29 34 64 44 54 46 55 141 79 53 13 96 27 96 31 0 4 -57 40 -126
80 l-126 72 -29 65 c-16 36 -28 67 -26 69 2 2 34 6 70 10 l65 6 128 -76 c75
-45 131 -72 134 -66 4 5 -4 51 -18 102 -24 90 -24 93 -7 143 28 83 27 83 89
35 41 -32 58 -53 65 -80 6 -20 26 -101 46 -181 19 -79 41 -150 48 -156 32 -31
388 -232 392 -221 2 7 6 109 9 227 l5 215 -139 140 -139 139 -11 69 c-7 37
-10 70 -9 72 2 1 33 -2 69 -7 63 -9 67 -12 141 -84 41 -41 78 -71 82 -68 4 4
7 74 7 156 l0 149 38 54 c20 30 38 54 39 55 1 0 20 -24 43 -53z"/>
</g>
</svg>
